<?xml version="1.0" standalone="no"?>
<!DOCTYPE svg PUBLIC "-//W3C//DTD SVG 20010904//EN"
 "http://www.w3.org/TR/2001/REC-SVG-20010904/DTD/svg10.dtd">
<svg version="1.0" xmlns="http://www.w3.org/2000/svg"
 width="100.000000pt" height="54.000000pt" viewBox="0 0 100.000000 54.000000"
 preserveAspectRatio="xMidYMid meet">

<g transform="translate(0.000000,54.000000) scale(0.100000,-0.100000)"
fill="#000000" stroke="none">
<path d="M248 389 c2 -60 -1 -95 -8 -105 -11 -12 -4 -14 43 -14 46 0 55 3 60
20 3 13 14 20 30 20 32 0 57 29 57 67 0 39 -28 63 -72 63 -65 0 -91 -68 -44
-115 27 -26 24 -35 -11 -35 -18 0 -23 6 -24 28 0 15 -2 45 -4 67 -1 22 1 52 6
67 7 25 5 28 -14 28 -21 0 -22 -3 -19 -91z m146 19 c32 -45 11 -93 -36 -86
-12 2 -29 15 -37 30 -33 58 36 110 73 56z"/>
<path d="M351 464 c0 -11 3 -14 6 -6 3 7 2 16 -1 19 -3 4 -6 -2 -5 -13z"/>
<path d="M371 464 c0 -11 3 -14 6 -6 3 7 2 16 -1 19 -3 4 -6 -2 -5 -13z"/>
<path d="M391 464 c0 -11 3 -14 6 -6 3 7 2 16 -1 19 -3 4 -6 -2 -5 -13z"/>
<path d="M440 402 c3 -20 3 -49 -1 -65 -6 -24 -4 -27 15 -27 19 0 22 4 18 25
-2 14 0 25 6 25 5 0 17 -11 26 -25 14 -22 24 -25 71 -25 42 0 60 5 75 20 25
25 26 72 2 93 -23 21 -118 25 -105 5 18 -29 14 -108 -6 -108 -4 0 -13 11 -20
24 -10 18 -10 28 -1 45 16 31 -3 51 -50 51 l-37 0 7 -38z m55 -2 c0 -13 -6
-25 -12 -27 -9 -3 -13 6 -13 27 0 21 4 30 13 28 6 -3 12 -15 12 -28z m139 8
c9 -12 16 -30 16 -40 0 -22 -27 -48 -51 -48 -16 0 -19 7 -19 55 0 48 3 55 19
55 11 0 27 -10 35 -22z"/>
<path d="M374 286 c-9 -24 4 -48 23 -44 12 2 18 12 18 28 0 29 -32 41 -41 16z
m36 -16 c0 -11 -7 -20 -15 -20 -8 0 -15 9 -15 20 0 11 7 20 15 20 8 0 15 -9
15 -20z"/>
<path d="M430 268 c0 -24 3 -29 9 -18 6 8 7 18 4 23 -3 5 1 13 8 18 11 7 10 9
-3 9 -14 0 -18 -8 -18 -32z"/>
<path d="M498 268 c2 -15 5 -28 7 -28 2 0 5 13 7 28 2 17 -1 29 -7 29 -6 0 -9
-12 -7 -29z"/>
<path d="M542 270 c0 -19 2 -27 5 -17 2 9 2 25 0 35 -3 9 -5 1 -5 -18z"/>
<path d="M572 270 c0 -19 2 -27 5 -17 2 9 2 25 0 35 -3 9 -5 1 -5 -18z"/>
<path d="M600 270 c0 -22 5 -30 18 -29 10 0 12 3 5 6 -17 6 -17 40 0 46 7 3 5
6 -5 6 -13 1 -18 -7 -18 -29z"/>
<path d="M238 242 c10 -7 13 -29 10 -80 -3 -65 -1 -71 18 -75 19 -3 20 -1 10
24 -5 16 -7 31 -4 35 11 10 55 -4 55 -19 0 -24 35 -67 56 -67 20 0 20 0 1 23
-46 52 -52 68 -35 99 13 23 14 30 3 37 -8 4 -13 12 -13 17 1 5 -25 10 -56 12
-36 1 -53 -1 -45 -6z m87 -42 c0 -31 -3 -35 -28 -38 -25 -3 -27 -1 -25 30 2
44 6 50 31 46 18 -2 22 -10 22 -38z"/>
<path d="M405 221 c-11 -5 -24 -6 -30 -3 -5 3 -4 -1 3 -10 15 -18 13 -90 -2
-100 -6 -4 0 -8 14 -8 24 0 25 3 25 57 0 38 4 58 13 61 11 3 13 -9 10 -57 -2
-50 0 -61 13 -61 13 0 14 9 9 51 l-7 51 48 -54 48 -53 1 62 c0 39 4 63 13 66
6 3 3 6 -8 6 -18 1 -20 -4 -17 -46 l3 -48 -35 40 c-20 22 -36 43 -36 48 0 9
-39 8 -65 -2z"/>
<path d="M577 212 c-41 -45 -5 -112 58 -112 32 0 35 2 35 30 0 19 -5 30 -14
30 -9 0 -12 -8 -8 -25 3 -20 0 -25 -16 -25 -23 0 -52 35 -52 62 0 37 72 68 82
36 3 -7 7 -6 11 5 5 14 0 17 -37 17 -29 0 -48 -6 -59 -18z"/>
<path d="M691 216 c-16 -19 -6 -39 29 -60 17 -9 30 -22 30 -27 0 -16 -32 -23
-51 -10 -16 9 -19 8 -19 -5 0 -22 69 -15 84 9 9 16 5 24 -29 52 -33 28 -37 35
-22 41 9 3 24 4 32 1 8 -4 17 -2 20 3 10 16 -61 12 -74 -4z"/>
</g>
</svg>
